<?xml version="1.0" encoding="utf-8"?>
<!-- Generator: Adobe Illustrator 16.0.0, SVG Export Plug-In . SVG Version: 6.00 Build 0)  -->
<!DOCTYPE svg PUBLIC "-//W3C//DTD SVG 1.1//EN" "http://www.w3.org/Graphics/SVG/1.1/DTD/svg11.dtd">
<svg version="1.1" id="Layer_1" xmlns="http://www.w3.org/2000/svg" xmlns:xlink="http://www.w3.org/1999/xlink" x="0px" y="0px"
	 width="217px" height="250px" viewBox="0 0 217 250" enable-background="new 0 0 217 250" xml:space="preserve">
<g>
	<polyline fill="#BDC3C7" points="16.049,94.421 78.493,47.59 148.672,50.063 197.02,99.905 205.48,152.139 184.1,207.133 
		124.801,244.339 88.316,244.339 11.634,168.482 16.049,94.421 	"/>
	<path fill="#414E5D" d="M106.354,37.789c-58.6,0-106.086,47.522-106.086,106.145c0,58.623,47.486,106.146,106.086,106.146
		c58.589,0,106.085-47.522,106.085-106.146C212.439,85.311,164.943,37.789,106.354,37.789z M106.354,238.704
		c-3.01,0-5.989-0.136-8.925-0.419c-48.139-4.498-85.795-45.027-85.795-94.354c0-13.005,2.622-25.397,7.357-36.687
		c0.337-0.748,0.673-1.516,1.011-2.327c0.368-0.832,0.736-1.706,1.105-2.601c4.599-11.193,15.944-23.83,15.944-23.83l0.168,0.674
		c17.271-18.458,41.855-30,69.135-30c52.307,0,94.72,42.426,94.72,94.771C201.074,196.27,158.661,238.704,106.354,238.704z"/>
	<path fill="#C03A2B" d="M210.771,37.47l-2.941,7.371c0,0-4.09,5.44-5.379,6.669c-1.29,1.229-3.745,7.197-4.447,8.6
		c-0.702,1.404-3.242,3.001-3.242,3.001s-2.543,5.905-3.313,5.773c-0.768-0.132-2.809,5.989-2.809,5.989s-2.214,4.191-2.039,4.893
		c0.176,0.701-0.01,2.631-0.01,2.631s-1.023,2.632-1.209,5.441c-0.185,2.809-1.283,3.335-1.283,3.335s-3.559,3.51-4.65,5.089
		c-1.092,1.58-4.073,5.441-4.073,5.441s-4.733,3.335-6.665,6.845c-1.93,3.51-3.827,10.354-2.878,16.146
		c0.948,5.792,4.163,8.722,4.163,8.722l7.837,4.617l4.951,3.715l3.644,2.063h2.807c0,0,0.791,1.508,2.216,2.67
		c1.426,1.16,3.948,0,3.948,0l0.853,2.131c0,0,3.157-0.651,4.911,0c1.755,0.654,3.333,1.402,3.333,1.402s1.187,0.338,2.981,1.006
		c1.795,0.67,3.295,1.174,3.295,1.174l0.914,5.849l-16.924,5.792c0,0-14.385,1.579-22.762-1.053
		c-8.376-2.635-26.968-7.899-26.968-7.899l-9.474-14.041l-4.912-22.639l2.457-20.71l8.771-13.513c0,0,21.226-26.851,21.226-27.729
		s10.351-14.919,11.576-15.796c1.227-0.878,20.086-7.371,20.086-7.371l12.364-1.753L210.771,37.47z"/>
	<path fill="#ECF0F1" d="M190.375,141.807c0,0,0.615,3.113,0.221,3.859c-0.396,0.747-4.212-0.658-4.168-2.5
		C186.473,141.322,190.375,141.807,190.375,141.807z"/>
	<path fill="#ECF0F1" d="M165.95,127.107c0,0,3.508,0.131,3.901,0c0.395-0.133,0.088,1.931,0.789,2.676
		c0.702,0.746,1.887,1.316,2.149,1.316s0.526,1.623,0.263,3.379c-0.263,1.754-0.482,2.676-0.482,2.676s-6.357-4.782-6.62-5.266
		C165.688,131.408,165.95,127.107,165.95,127.107z"/>
	<path fill="#ECF0F1" d="M177.438,134.172c0,0,1.055,1.141,1.535,1.141c0.482,0,0.527,2.371,0.438,3.248
		c-0.088,0.877-4.911-1.668-4.911-1.668S176.87,134.436,177.438,134.172z"/>
	<path fill="#E64C3C" d="M135.561,112.585c0,0,4.209-0.395,6.445,0.79c0,0,3.42-3.816,8.551-3.686
		c5.131,0.132,10.655,3.686,11.973,5.528c1.314,1.843,3.421,4.607,4.078,7.766c0.658,3.16,0.395,8.688,2.895,10.136
		c2.499,1.447,6.841,4.869,11.708,4.738c4.867-0.133,12.366-1.316,16.576,2.104c4.209,3.423,0.921,2.238-0.79,2.106
		c-1.71-0.133-10.262,1.843-14.732,3.027c-4.473,1.184-14.736,2.579-24.339-2.498c-9.603-5.076-10.262-13.298-13.944-15.271
		c-3.684-1.974-6.84-3.027-8.42-0.264V112.585L135.561,112.585z"/>
	<path fill="#24AE5F" d="M147.305,103.883c0,0-6.878,4.095-8.455,12.256c-1.58,8.161-2.109,16.445,6.611,23.378
		c8.723,6.936-22.137,0-22.137,0l-32.362-14.165c0,0,3.026-16.059,3.684-16.585s34.599-7.897,34.599-7.897L147.305,103.883z"/>
	<path fill="#ECF0F1" d="M211.335,32.643c0,0,2.104,4.037,0,9.39c0,0-4.823-5.967-7.104-7.195l0.789,1.491
		c0,0,0.965,0.79,0.525,2.896c-0.438,2.105-1.229,4.65-0.525,6.143c0.703,1.491-7.01-2.892-8.547-4.298
		c-1.539-1.407-2.063-1.495-1.802-0.09c0.263,1.404,0.524,9.565,1.49,10.969c0,0-8.858-3.465-9.56-7.063
		c0,0,0.438,10.048,1.754,12.242c0,0-9.209-3.863-10.438-5.793s2.018,6.933,1.754,10.443c0,0-6.402-0.965-7.806-2.106
		c0,0,1.006,2.002,1.842,8.951c0,0-2.806,0.264-3.157,1.229s-3.277,0.703-5.498,0l-2.57,0.63c0,0,2.367,3.495,3.334,4.898
		c0,0-0.088,0.876-0.088,2.281c0,1.405-0.789,1.493-1.578,2.195c-0.791,0.701-0.969,2.392-4.125,1.459
		c-3.155-0.933-2.805,0.274-2.805,0.274s0.877,0.248,1.666,0.899c0.788,0.652,1.668,2.105,2.455,4.387
		c0.79,2.282,0.79,3.248,0.79,3.248s-1.842,1.053-2.368,2.633c-0.524,1.58-0.701,2.983-0.701,2.983s-1.726,1.138-3.07,1.317
		c-1.344,0.179-4.385-0.439-4.385-0.439l0.877,1.667c0,0,0.176,0.264,0.176,1.931s-0.176,3.159-0.176,3.159s1.229,0.129-1.491,0
		c-2.72-0.129-5.525,0.438-5.525,0.438l-2.805-2.939L88.9,111.708l5.263,14.917l31.573,7.896c0,0,16.313,5.967,16.84,5.793
		c0,0,3.158-0.877,4.211-1.756c1.053-0.877,1.667-1.49,2.104-0.613c0.438,0.877-0.295,2.195,1.693,2.809
		c1.99,0.614,3.218,0.438,3.218,0.438s0.614,1.143,0.614,4.037c0,2.896-0.525,4.563-0.525,4.563s0.701,1.315,1.842,0
		s4.121-4.036,4.646-4.036c0.527,0,1.579,1.402,2.105,1.754c0.524,0.352-0.615,7.898-0.264,8.514c0.353,0.613,2.104,0,2.104,0
		s1.842-6.055,6.227-6.406c0,0-0.964,8.514-0.176,10.97h2.019c0,0,1.578-4.563,2.191-5.178c0,0,2.28-0.351,3.508-1.316
		c1.229-0.965,1.315-1.403,1.315-1.403s2.192,1.315,2.544,9.653h1.229c0,0,2.895-7.81,5-9.829c0,0-0.089,3.073,1.053,4.739
		c1.14,1.668,1.578,4.649,1.578,4.649l1.754-0.35c0,0-0.526-2.633,0.438-5.443c0.964-2.807,2.104-4.561,2.104-4.561
		s2.367,2.543,3.858,7.107c1.491,4.563,1.14,2.633,1.14,2.633l1.757-1.055c0,0-1.142-2.809-0.703-5.441
		c0.438-2.632,1.229-4.824,1.229-4.824s2.947,5.698,4.719,7.237c1.771,1.536,2.385,0.571,2.385,0.571s0-5.616-0.438-7.723
		c-0.438-2.105-0.177-2.633-0.177-2.633s4.562,2.458,5.788,7.549l-9.559,7.37c0,0-18.508,6.142-19.121,6.142
		c-0.612,0-20.961-3.158-20.961-3.158l-27.889-11.495l-27.188-9.126l-8.245-5.266c0,0-15.172-7.724-15.26-8.073
		c-0.088-0.351-2.807-9.213-2.895-11.407c-0.087-2.194-0.877-10.267-0.877-10.267s18.242-9.478,18.593-9.565
		s31.224-6.932,31.224-6.932l11.401-3.86l9.383-15.532c0,0,7.192-10.443,7.543-11.408c0.351-0.964,23.505-20.885,23.505-20.885
		l8.944-10.178h9.297L211.335,32.643z"/>
	<path fill="#24AE5F" d="M169.027,214.979c-16.703,14.774-38.646,23.726-62.673,23.726c-3.01,0-5.989-0.136-8.925-0.419
		c-6.883-0.645-13.555-2.021-19.923-4.067c-9.43-7.411-17.649-16.173-18.512-18.964c-1.053-3.422-10.788-34.225-10.788-34.225
		s3.42-22.375,6.314-25.271c2.895-2.896,23.154-12.889,26.048-13.162c2.894-0.264,30.257,2.506,31.31,3.887
		c1.054,1.379,21.229,13.226,21.229,13.226l-2.463,8.771c0,0-9.293-0.873-16.136,11.236c-6.84,12.108-8.156,20.797-4.998,26.59
		C112.332,211.482,129.907,234.376,169.027,214.979z"/>
	<path fill="#35495E" d="M37.051,78.488c0,0-11.345,12.636-15.944,23.83c-0.369,0.895-0.737,1.769-1.105,2.601
		c4.314-9.529,10.145-18.217,17.218-25.756L37.051,78.488z"/>
	<path fill="#4FBA6F" d="M216.598,157.992c-1.179,0.525-2.631,3.559-3.947,4.874c-1.314,1.315-2.24,3.55-3.945,6.983
		c-1.705,3.41-2.631,5.652-13.029,9.338c-10.388,3.686-18.807,3.16-35.908-0.389c-17.103-3.561-17.035-4.211-22.334-5.979
		c-5.146-1.717-9.367-3.646-12.523-5.215c-5.236-2.607-7.641-4.349-17.239-5.654c-9.599-1.326-22.501-2.77-32.625,0.389
		c-10.125,3.158-19.821,17.465-11.226,41.331c7.674,21.313,23.329,30.188,33.611,34.614c-48.139-4.498-85.795-45.027-85.795-94.354
		c0-13.005,2.622-25.397,7.357-36.687c0.337-0.748,0.673-1.516,1.011-2.327c0.368-0.832,0.736-1.706,1.105-2.601
		c4.599-11.193,15.944-23.83,15.944-23.83s1.026-2.287,0.763-5.699c-0.263-3.433-0.989-5.497,0.702-11.363
		c0.658-2.282,4.013-4.318,8.419-6.933c5.174-3.071,7.218-2.989,9.564-3.636c1.901-0.526,9.906,3.905,15.557,4.179
		c5.663,0.253,20.752-12.877,24.825-14.32c4.073-1.442,10.914-5.128,13.545-6.455c2.633-1.305,16.586-9.73,17.502-10.393
		c0.916-0.663,1.188-4.075,1.579-5.528c0.39-1.453,2.632-4.476,7.229-5.001c4.611-0.527,8.693-1.443,10.137-1.317
		c1.441,0.126,5.125-3.685,11.05-6.581s8.556-0.916,9.082-2.496s1.97-3.296,6.841-2.77c4.863,0.526,6.441,3.949,7.23,5.792
		c0.79,1.843,0.525,2.37,4.474,4.212c3.947,1.843,14.607,10.531,17.238,13.953c2.632,3.422,3.812,0.926,5.651,2.896
		c1.843,1.969,5.263,5.654,3.685,6.845c-1.579,1.189-7.757,3.295-17.629,8.161c-9.872,4.864-20.786,15.531-27.627,25.146
		c-6.841,9.604-6.841,14.216-7.757,19.48c-0.926,5.265-1.715,8.288-7.893,14.216c-6.188,5.919-17.365,8.951-24.734,10.783
		c-7.366,1.853-17.11,3.686-21.447,3.959c-4.336,0.253-5.262,2.106-4.999,2.886c0.264,0.801,9.608,3.159,15.261,5.139
		s30.258,13.29,40.52,24.482c10.263,11.194,18.808,11.974,28.941,12.637c10.135,0.664,19.081-2.495,23.154-3.821
		c4.073-1.307,5.788-3.16,7.63-3.287C217.387,153.527,217.775,157.466,216.598,157.992z"/>
	<path fill="#ECF0F1" d="M200.219,149.967c0,0,3.355,2.633,5.262,2.172c1.908-0.461-1.645-6.58-2.17-7.106
		C203.311,145.031,200.284,148.256,200.219,149.967z"/>
	<path fill="#ECF0F1" d="M196.384,142.947c0,0,1.929,4.738,1.621,6.492c-0.306,1.756-4.298-1.01-5.13-1.799
		C192.042,146.852,195.9,143.166,196.384,142.947z"/>
	<path fill="#ECF0F1" d="M181.473,94.421c0,0-2.565,0-4.078,2.171c-1.514,2.172-1.185,2.764-1.185,2.764s-2.5,0.46-2.96,0.921
		c-0.46,0.46-1.25,1.251-1.25,2.106s1.775,2.435,2.171,2.83s2.171,1.646,2.171,1.646s0.723-2.436,0.789-3.554
		c0.064-1.119,1.053-1.646,1.973-1.317c0.922,0.329,2.369-0.46,2.369-0.658C181.473,101.133,182.59,96.592,181.473,94.421z"/>
	<path fill="#ECF0F1" d="M185.419,86.983c0,0-1.774-1.119-2.235,1.316c-0.461,2.435-0.396,3.751-0.396,3.751
		s1.645,1.777,2.632,1.777c0.985,0,2.563-0.658,2.563-0.658s0-0.921,0-2.435C187.982,89.221,185.419,86.983,185.419,86.983z"/>
	<path fill="#ECF0F1" d="M184.893,79.81c0,0-0.723,0.264-0.789,1.646c-0.064,1.382,0.592,1.843,2.236,2.698s4.342,0.592,4.342,0.592
		s-0.986-3.159-1.513-4.541c-0.526-1.383-1.054-2.238-2.171-2.041C185.88,78.362,184.893,79.284,184.893,79.81z"/>
	<path fill="#ECF0F1" d="M192.523,67.437c-0.164-0.112-0.791-0.066-1.842,1.316c-1.055,1.382-1.777,1.119-2.041,2.567
		c-0.263,1.447-0.984,2.829,0,3.554c0.986,0.724,3.75,0.921,4.276,0.921c0.524,0,0.196-1.185,0.789-1.843
		c0.592-0.659,1.446-0.527,0.854-1.975C193.971,70.53,193.378,68.029,192.523,67.437z"/>
	<path fill="#ECF0F1" d="M198.641,58.354c0,0-2.17-0.395-3.42,1.777c-1.25,2.172-1.514,2.896-1.25,4.278
		c0.264,1.383,0.461,0.395,2.762,1.316c2.304,0.921,3.42,2.172,3.42,2.172S200.35,61.185,198.641,58.354z"/>
	<path fill="#ECF0F1" d="M203.311,50.063c0,0-1.119,0.526-1.774,0.855c-0.658,0.329-2.04,0.592-2.171,2.171
		c-0.133,1.58,0.328,3.488,0.328,3.488s5.568,1.75,5.656,2.83C205.35,59.407,206.533,54.011,203.311,50.063z"/>
	<path fill="#ECF0F1" d="M209.822,42.362c0,0-1.776-0.395-2.368,0.658c-0.593,1.053-1.052,2.304-1.447,2.633
		c-0.396,0.329-1.116,1.381-1.116,1.381s0.262,1.316,1.381,1.646c1.117,0.33,2.828,3.818,2.828,4.212
		C209.1,52.892,212.32,47.232,209.822,42.362z"/>
	<path fill="#ECF0F1" d="M48.908,71.596c0,0,5.438,1.658,8.068,0c2.631-1.658,2.982-3.054,4.21-4.199
		c1.227-1.145,2.456-2.724,2.456-2.724s-3.983-0.768-7.523,0.131c-2.763,0.701-6.509-0.131-7.211,1.449
		C48.207,67.833,48.908,71.596,48.908,71.596z"/>
	<path fill="#24AE5F" d="M142.576,21.675c-1.48,1.186-0.877,2.281,0,2.983c0.876,0.702,2.807,0.352,3.333-1.491
		S144.331,20.271,142.576,21.675z"/>
	<path fill="#24AE5F" d="M173.448,5.529c0,0-1.229,0-1.229,1.58c0,1.579-0.175,2.106,1.229,1.755
		C174.852,8.512,175.902,5.529,173.448,5.529z"/>
</g>
</svg>
