<?xml version="1.0" encoding="utf-8"?>
<!-- Generator: Adobe Illustrator 16.0.0, SVG Export Plug-In . SVG Version: 6.00 Build 0)  -->
<!DOCTYPE svg PUBLIC "-//W3C//DTD SVG 1.1//EN" "http://www.w3.org/Graphics/SVG/1.1/DTD/svg11.dtd">
<svg version="1.1" id="Layer_1" xmlns="http://www.w3.org/2000/svg" xmlns:xlink="http://www.w3.org/1999/xlink" x="0px" y="0px"
	 width="50px" height="50px" viewBox="0 0 50 50" enable-background="new 0 0 50 50" xml:space="preserve">
<circle fill="none" stroke="#ECF0F1" stroke-miterlimit="10" cx="25.683" cy="24.662" r="20"/>
<path display="none" fill="#ECF0F1" d="M30.848,14v3.899h-1.789c0,0-1.711-0.08-1.711,1.71v1.034h3.5v3.88h-3.5V36h-5.033V24.503
	h-3.163v-3.82h3.163v-2.148c0,0,0.02-4.536,4.715-4.536H30.848z"/>
<path fill="#ECF0F1" d="M34.469,21.433c0,0,0.572,6.581-5.322,10.415c-5.894,3.835-11.988,0.43-12.646,0
	c0,0,3.863,0.229,5.923-1.745c0,0-2.775-0.114-3.777-2.918c0,0,1.145,0.2,1.717-0.058c0,0-3.176-0.858-3.119-4.063
	c0,0,0.83,0.601,1.774,0.515c0,0-2.861-2.174-1.202-5.551c0,0,3.548,4.435,8.469,4.292c0,0-0.429-3.233,1.889-4.406
	c2.317-1.173,4.378-0.201,5.093,0.629c0,0,1.603-0.057,2.604-0.916c0,0-0.028,1.316-1.573,2.231c0,0,1.859-0.314,2.203-0.601
	C36.5,19.259,35.355,20.918,34.469,21.433z"/>
</svg>
